<svg width="150" height="45" viewBox="0 0 150 45" fill="none" xmlns="http://www.w3.org/2000/svg">
<rect width="150" height="45" rx="5" fill="#FFA034"/>
<path d="M20.864 31V29.92L22.88 29.344V17.896L20.84 17.344V16.264H27.416C28.68 16.264 29.688 16.416 30.44 16.72C31.208 17.024 31.76 17.448 32.096 17.992C32.432 18.52 32.6 19.144 32.6 19.864C32.6 20.792 32.28 21.544 31.64 22.12C31 22.68 30.192 23.048 29.216 23.224C30.624 23.4 31.648 23.832 32.288 24.52C32.944 25.192 33.272 26 33.272 26.944C33.272 28.16 32.768 29.144 31.76 29.896C30.768 30.632 29.248 31 27.2 31H20.864ZM27.296 29.488C27.808 29.488 28.264 29.4 28.664 29.224C29.064 29.032 29.376 28.736 29.6 28.336C29.824 27.936 29.936 27.424 29.936 26.8C29.936 26.16 29.792 25.64 29.504 25.24C29.216 24.84 28.832 24.544 28.352 24.352C27.872 24.16 27.344 24.064 26.768 24.064H26.12V29.344C26.28 29.392 26.464 29.432 26.672 29.464C26.88 29.48 27.088 29.488 27.296 29.488ZM26.12 22.768H26.816C27.216 22.768 27.608 22.696 27.992 22.552C28.392 22.392 28.72 22.112 28.976 21.712C29.232 21.296 29.36 20.712 29.36 19.96C29.36 19.176 29.168 18.608 28.784 18.256C28.416 17.904 27.92 17.728 27.296 17.728C27.056 17.728 26.824 17.752 26.6 17.8C26.392 17.832 26.232 17.864 26.12 17.896V22.768ZM40.2378 31.24C38.8458 31.24 37.7178 30.96 36.8538 30.4C35.9898 29.84 35.3578 29.104 34.9578 28.192C34.5578 27.264 34.3578 26.248 34.3578 25.144C34.3578 23.992 34.5498 22.952 34.9338 22.024C35.3338 21.08 35.9658 20.336 36.8298 19.792C37.6938 19.232 38.8298 18.952 40.2378 18.952C41.6938 18.952 42.8538 19.232 43.7178 19.792C44.5978 20.336 45.2298 21.08 45.6138 22.024C46.0138 22.952 46.2138 23.992 46.2138 25.144C46.2138 26.248 46.0138 27.264 45.6138 28.192C45.2138 29.104 44.5738 29.84 43.6938 30.4C42.8298 30.96 41.6778 31.24 40.2378 31.24ZM40.3338 29.608C41.0058 29.608 41.5098 29.408 41.8458 29.008C42.1978 28.608 42.4298 28.072 42.5418 27.4C42.6698 26.712 42.7338 25.944 42.7338 25.096C42.7338 24.232 42.6618 23.464 42.5178 22.792C42.3898 22.104 42.1418 21.568 41.7738 21.184C41.4058 20.784 40.8778 20.584 40.1898 20.584C39.5498 20.584 39.0618 20.784 38.7258 21.184C38.3898 21.568 38.1578 22.104 38.0298 22.792C37.9018 23.464 37.8378 24.232 37.8378 25.096C37.8378 25.944 37.9018 26.712 38.0298 27.4C38.1738 28.072 38.4218 28.608 38.7738 29.008C39.1418 29.408 39.6618 29.608 40.3338 29.608ZM53.2925 31.24C51.9005 31.24 50.7725 30.96 49.9085 30.4C49.0445 29.84 48.4125 29.104 48.0125 28.192C47.6125 27.264 47.4125 26.248 47.4125 25.144C47.4125 23.992 47.6045 22.952 47.9885 22.024C48.3885 21.08 49.0205 20.336 49.8845 19.792C50.7485 19.232 51.8845 18.952 53.2925 18.952C54.7485 18.952 55.9085 19.232 56.7725 19.792C57.6525 20.336 58.2845 21.08 58.6685 22.024C59.0685 22.952 59.2685 23.992 59.2685 25.144C59.2685 26.248 59.0685 27.264 58.6685 28.192C58.2685 29.104 57.6285 29.84 56.7485 30.4C55.8845 30.96 54.7325 31.24 53.2925 31.24ZM53.3885 29.608C54.0605 29.608 54.5645 29.408 54.9005 29.008C55.2525 28.608 55.4845 28.072 55.5965 27.4C55.7245 26.712 55.7885 25.944 55.7885 25.096C55.7885 24.232 55.7165 23.464 55.5725 22.792C55.4445 22.104 55.1965 21.568 54.8285 21.184C54.4605 20.784 53.9325 20.584 53.2445 20.584C52.6045 20.584 52.1165 20.784 51.7805 21.184C51.4445 21.568 51.2125 22.104 51.0845 22.792C50.9565 23.464 50.8925 24.232 50.8925 25.096C50.8925 25.944 50.9565 26.712 51.0845 27.4C51.2285 28.072 51.4765 28.608 51.8285 29.008C52.1965 29.408 52.7165 29.608 53.3885 29.608ZM60.2272 31V29.8L62.0992 29.32V15.808L60.2272 15.544V14.392L64.2592 13.456H65.3392V29.32L66.7792 29.752V31H60.2272ZM68.0512 31V29.752L69.0832 29.344L65.4592 24.808L68.7952 20.752L67.2352 20.392V19.192H73.3792V20.392L71.1232 20.824L68.5552 23.92L72.8512 29.296L74.1712 29.752V31H68.0512ZM90.0586 31.24L82.4266 20.056V29.344L84.4666 29.92V31H78.7546V29.92L80.7706 29.344V17.896L78.7306 17.344V16.264H83.6746L90.9946 27.088V17.896L88.9546 17.344V16.264H94.7866V17.344L92.7466 17.896V31L90.0586 31.24ZM101.621 31.24C100.229 31.24 99.1006 30.96 98.2366 30.4C97.3726 29.84 96.7406 29.104 96.3406 28.192C95.9406 27.264 95.7406 26.248 95.7406 25.144C95.7406 23.992 95.9326 22.952 96.3166 22.024C96.7166 21.08 97.3486 20.336 98.2126 19.792C99.0766 19.232 100.213 18.952 101.621 18.952C103.077 18.952 104.237 19.232 105.101 19.792C105.981 20.336 106.613 21.08 106.997 22.024C107.397 22.952 107.597 23.992 107.597 25.144C107.597 26.248 107.397 27.264 106.997 28.192C106.597 29.104 105.957 29.84 105.077 30.4C104.213 30.96 103.061 31.24 101.621 31.24ZM101.717 29.608C102.389 29.608 102.893 29.408 103.229 29.008C103.581 28.608 103.813 28.072 103.925 27.4C104.053 26.712 104.117 25.944 104.117 25.096C104.117 24.232 104.045 23.464 103.901 22.792C103.773 22.104 103.525 21.568 103.157 21.184C102.789 20.784 102.261 20.584 101.573 20.584C100.933 20.584 100.445 20.784 100.109 21.184C99.7726 21.568 99.5406 22.104 99.4126 22.792C99.2846 23.464 99.2206 24.232 99.2206 25.096C99.2206 25.944 99.2846 26.712 99.4126 27.4C99.5566 28.072 99.8046 28.608 100.157 29.008C100.525 29.408 101.045 29.608 101.717 29.608ZM112.755 31.36L109.083 20.8L107.859 20.44V19.192H113.715V20.512L112.467 20.8L114.363 27.424L116.475 20.368L118.491 20.032L120.603 27.448L122.307 20.848L120.771 20.512V19.192H125.979V20.44L124.467 20.848L121.275 31.12L118.995 31.36L116.955 24.928L115.011 31.12L112.755 31.36Z" fill="#243748"/>
</svg>
