<svg width="38" height="38" viewBox="0 0 38 38" fill="none" xmlns="http://www.w3.org/2000/svg">
<g clip-path="url(#clip0_28_114)">
<path fill-rule="evenodd" clip-rule="evenodd" d="M34.2 30.4H3.8C1.7024 30.4 0 32.1024 0 34.2C0 36.2976 1.7024 38 3.8 38H34.2C36.2976 38 38 36.2976 38 34.2C38 32.1024 36.2976 30.4 34.2 30.4ZM34.2 15.2H3.8C1.7024 15.2 0 16.9024 0 19C0 21.0976 1.7024 22.8 3.8 22.8H34.2C36.2976 22.8 38 21.0976 38 19C38 16.9024 36.2976 15.2 34.2 15.2ZM3.8 7.6H34.2C36.2976 7.6 38 5.8976 38 3.8C38 1.7024 36.2976 0 34.2 0H3.8C1.7024 0 0 1.7024 0 3.8C0 5.8976 1.7024 7.6 3.8 7.6Z" fill="#FFAB4B"/>
</g>
<defs>
<clipPath id="clip0_28_114">
<rect width="38" height="38" fill="white"/>
</clipPath>
</defs>
</svg>
