<svg width="178" height="45" viewBox="0 0 178 45" fill="none" xmlns="http://www.w3.org/2000/svg">
<rect width="178" height="45" rx="5" fill="#FFA034"/>
<path d="M19.72 28V27.1L21.4 26.62V17.08L19.7 16.62V15.72H28.96V18.64H27.84L27.4 17.08H24.1V21.6H26.22L26.56 20.28H27.62V24.1H26.56L26.18 22.72H24.1V26.5L26.22 27V28H19.72ZM29.7539 28V27L31.3139 26.6V19.92L29.7539 19.7V18.74L33.1339 17.96H34.0139V26.6L35.5739 27V28H29.7539ZM32.5539 16.68C32.0606 16.68 31.6539 16.5267 31.3339 16.22C31.0272 15.9133 30.8739 15.52 30.8739 15.04C30.8739 14.56 31.0272 14.1667 31.3339 13.86C31.6539 13.5533 32.0606 13.4 32.5539 13.4C33.0472 13.4 33.4472 13.5533 33.7539 13.86C34.0739 14.1667 34.2339 14.56 34.2339 15.04C34.2339 15.52 34.0739 15.9133 33.7539 16.22C33.4472 16.5267 33.0472 16.68 32.5539 16.68ZM36.3359 28V27.1L37.8959 26.6V19.9L36.3359 19.7V18.7L39.7159 17.96H40.5959V18.76C40.7693 18.68 41.0559 18.58 41.4559 18.46C41.8559 18.3267 42.2959 18.2133 42.7759 18.12C43.2559 18.0133 43.7026 17.96 44.1159 17.96C44.5559 17.96 44.9626 18.0267 45.3359 18.16C45.7093 18.2933 46.0093 18.5133 46.2359 18.82C46.4759 19.1133 46.5959 19.52 46.5959 20.04V26.6L48.1759 27.1V28H42.6959V27.1L43.8959 26.6V20.72C43.8959 20.2267 43.8026 19.9133 43.6159 19.78C43.4293 19.6467 43.0626 19.58 42.5159 19.58C42.0759 19.58 41.7093 19.6067 41.4159 19.66C41.1226 19.7 40.8493 19.7533 40.5959 19.82V26.6L41.7959 27.1V28H36.3359ZM52.2336 28.2C51.4869 28.2 50.8669 27.96 50.3736 27.48C49.8936 27 49.5336 26.3733 49.2936 25.6C49.0536 24.8267 48.9336 24 48.9336 23.12C48.9336 21.52 49.3069 20.26 50.0536 19.34C50.8003 18.42 51.8403 17.96 53.1736 17.96C53.5469 17.96 53.8869 18 54.1936 18.08C54.5136 18.16 54.7736 18.2467 54.9736 18.34C55.1736 18.42 55.2869 18.4733 55.3136 18.5V15.34L53.7536 15.12V14.16L57.1336 13.38H58.0136V26.34L59.5736 26.9V27.76C59.1203 27.88 58.7203 27.9667 58.3736 28.02C58.0269 28.0733 57.6869 28.1 57.3536 28.1C56.9136 28.1 56.5003 28.0133 56.1136 27.84C55.7269 27.6533 55.4803 27.3867 55.3736 27.04C54.9603 27.3733 54.4869 27.6533 53.9536 27.88C53.4336 28.0933 52.8603 28.2 52.2336 28.2ZM53.5536 26.58C53.9136 26.58 54.2603 26.5067 54.5936 26.36C54.9269 26.2133 55.1669 26.06 55.3136 25.9V19.84C55.1403 19.68 54.9003 19.5533 54.5936 19.46C54.3003 19.3533 54.0336 19.3 53.7936 19.3C53.1269 19.3 52.6336 19.6467 52.3136 20.34C51.9936 21.02 51.8336 21.9333 51.8336 23.08C51.8336 24.1067 51.9669 24.9467 52.2336 25.6C52.5003 26.2533 52.9403 26.58 53.5536 26.58ZM63.0383 28V27.12L64.4583 26.62L68.2383 15.72L69.7983 15.46L73.8983 26.62L75.3183 27.1V28H69.7583V27.1L71.0583 26.7L70.4783 24.94H66.6383L66.0783 26.64L67.4383 27.1V28H63.0383ZM67.0183 23.86H70.0783L68.4783 19.54L67.0183 23.86ZM78.9133 28.2C78.1666 28.2 77.5466 27.96 77.0533 27.48C76.5733 27 76.2133 26.3733 75.9733 25.6C75.7333 24.8267 75.6133 24 75.6133 23.12C75.6133 21.52 75.9866 20.26 76.7333 19.34C77.4799 18.42 78.5199 17.96 79.8533 17.96C80.2266 17.96 80.5666 18 80.8733 18.08C81.1933 18.16 81.4533 18.2467 81.6533 18.34C81.8533 18.42 81.9666 18.4733 81.9933 18.5V15.34L80.4333 15.12V14.16L83.8133 13.38H84.6933V26.34L86.2533 26.9V27.76C85.7999 27.88 85.3999 27.9667 85.0533 28.02C84.7066 28.0733 84.3666 28.1 84.0333 28.1C83.5933 28.1 83.1799 28.0133 82.7933 27.84C82.4066 27.6533 82.1599 27.3867 82.0533 27.04C81.6399 27.3733 81.1666 27.6533 80.6333 27.88C80.1133 28.0933 79.5399 28.2 78.9133 28.2ZM80.2333 26.58C80.5933 26.58 80.9399 26.5067 81.2733 26.36C81.6066 26.2133 81.8466 26.06 81.9933 25.9V19.84C81.8199 19.68 81.5799 19.5533 81.2733 19.46C80.9799 19.3533 80.7133 19.3 80.4733 19.3C79.8066 19.3 79.3133 19.6467 78.9933 20.34C78.6733 21.02 78.5133 21.9333 78.5133 23.08C78.5133 24.1067 78.6466 24.9467 78.9133 25.6C79.1799 26.2533 79.6199 26.58 80.2333 26.58ZM90.4219 28.3L87.1619 19.5L86.1419 19.2V18.16H91.0819V19.26L90.0619 19.5L91.8219 25.02L93.6419 19.54L92.3619 19.26V18.16H96.7019V19.2L95.4419 19.54L92.3619 28.1L90.4219 28.3ZM101.624 28.2C100.678 28.2 99.8909 28.0667 99.2642 27.8C98.6376 27.52 98.1442 27.14 97.7842 26.66C97.4376 26.18 97.1909 25.64 97.0442 25.04C96.8976 24.4267 96.8242 23.7867 96.8242 23.12C96.8242 22.1333 96.9442 21.3133 97.1842 20.66C97.4376 19.9933 97.7776 19.4667 98.2042 19.08C98.6309 18.68 99.1176 18.3933 99.6642 18.22C100.224 18.0467 100.811 17.96 101.424 17.96C102.824 17.96 103.844 18.2733 104.484 18.9C105.124 19.5133 105.444 20.48 105.444 21.8C105.444 21.88 105.438 22.0067 105.424 22.18C105.424 22.34 105.418 22.5067 105.404 22.68C105.404 22.8533 105.391 23 105.364 23.12H99.7242V23.6C99.7242 24.4133 99.8309 25.0467 100.044 25.5C100.258 25.9533 100.564 26.2667 100.964 26.44C101.364 26.6133 101.851 26.7 102.424 26.7C102.811 26.7 103.244 26.6533 103.724 26.56C104.204 26.4667 104.691 26.3533 105.184 26.22L105.344 27.1C104.944 27.3933 104.438 27.6533 103.824 27.88C103.211 28.0933 102.478 28.2 101.624 28.2ZM99.7642 22.04L102.724 21.82V21.4C102.724 21.0133 102.698 20.6667 102.644 20.36C102.591 20.0533 102.478 19.8067 102.304 19.62C102.144 19.4333 101.884 19.34 101.524 19.34C101.058 19.34 100.698 19.4467 100.444 19.66C100.204 19.8733 100.038 20.1867 99.9442 20.6C99.8509 21 99.7909 21.48 99.7642 22.04ZM106.453 28V27.1L108.013 26.6V19.9L106.453 19.7V18.7L109.833 17.96H110.713V18.76C110.886 18.68 111.173 18.58 111.573 18.46C111.973 18.3267 112.413 18.2133 112.893 18.12C113.373 18.0133 113.82 17.96 114.233 17.96C114.673 17.96 115.08 18.0267 115.453 18.16C115.826 18.2933 116.126 18.5133 116.353 18.82C116.593 19.1133 116.713 19.52 116.713 20.04V26.6L118.293 27.1V28H112.813V27.1L114.013 26.6V20.72C114.013 20.2267 113.92 19.9133 113.733 19.78C113.546 19.6467 113.18 19.58 112.633 19.58C112.193 19.58 111.826 19.6067 111.533 19.66C111.24 19.7 110.966 19.7533 110.713 19.82V26.6L111.913 27.1V28H106.453ZM122.051 28.18C121.544 28.18 121.157 28.1067 120.891 27.96C120.637 27.8 120.471 27.6 120.391 27.36C120.311 27.12 120.271 26.8733 120.271 26.62V19.6H118.831V18.66L120.491 17.92L121.711 15.92H122.931V18.16H125.191V19.66L122.931 19.58V26.3L124.911 26.74V27.74C124.631 27.8333 124.317 27.9133 123.971 27.98C123.624 28.0333 123.277 28.08 122.931 28.12C122.597 28.16 122.304 28.18 122.051 28.18ZM129.924 28.2C129.284 28.2 128.777 28.0933 128.404 27.88C128.031 27.6533 127.764 27.3667 127.604 27.02C127.457 26.66 127.384 26.2867 127.384 25.9V19.92L125.824 19.7V18.74L129.204 17.96H130.084V25.2C130.084 25.64 130.177 25.98 130.364 26.22C130.551 26.4467 130.871 26.56 131.324 26.56C131.591 26.56 131.891 26.4933 132.224 26.36C132.571 26.2267 132.871 26.0733 133.124 25.9V19.92L131.564 19.7V18.74L134.944 17.96H135.824V26.34L137.384 26.9V27.76C136.917 27.88 136.531 27.9667 136.224 28.02C135.917 28.0733 135.577 28.1 135.204 28.1C134.751 28.1 134.317 28.0067 133.904 27.82C133.504 27.62 133.271 27.3333 133.204 26.96C132.964 27.1733 132.657 27.38 132.284 27.58C131.924 27.7667 131.537 27.9133 131.124 28.02C130.711 28.14 130.311 28.2 129.924 28.2ZM138.406 28V27L139.966 26.6V19.92L138.406 19.7V18.74L141.766 17.96H142.666V18.88C143.106 18.5867 143.6 18.3533 144.146 18.18C144.693 17.9933 145.193 17.9 145.646 17.9C145.726 17.9 145.826 17.9 145.946 17.9C146.08 17.9 146.173 17.9067 146.226 17.92L145.846 21.5H144.386L143.966 19.66C143.753 19.66 143.526 19.6867 143.286 19.74C143.06 19.7933 142.853 19.8733 142.666 19.98V26.6L144.986 27V28H138.406ZM151.527 28.2C150.58 28.2 149.793 28.0667 149.167 27.8C148.54 27.52 148.047 27.14 147.687 26.66C147.34 26.18 147.093 25.64 146.947 25.04C146.8 24.4267 146.727 23.7867 146.727 23.12C146.727 22.1333 146.847 21.3133 147.087 20.66C147.34 19.9933 147.68 19.4667 148.107 19.08C148.533 18.68 149.02 18.3933 149.567 18.22C150.127 18.0467 150.713 17.96 151.327 17.96C152.727 17.96 153.747 18.2733 154.387 18.9C155.027 19.5133 155.347 20.48 155.347 21.8C155.347 21.88 155.34 22.0067 155.327 22.18C155.327 22.34 155.32 22.5067 155.307 22.68C155.307 22.8533 155.293 23 155.267 23.12H149.627V23.6C149.627 24.4133 149.733 25.0467 149.947 25.5C150.16 25.9533 150.467 26.2667 150.867 26.44C151.267 26.6133 151.753 26.7 152.327 26.7C152.713 26.7 153.147 26.6533 153.627 26.56C154.107 26.4667 154.593 26.3533 155.087 26.22L155.247 27.1C154.847 27.3933 154.34 27.6533 153.727 27.88C153.113 28.0933 152.38 28.2 151.527 28.2ZM149.667 22.04L152.627 21.82V21.4C152.627 21.0133 152.6 20.6667 152.547 20.36C152.493 20.0533 152.38 19.8067 152.207 19.62C152.047 19.4333 151.787 19.34 151.427 19.34C150.96 19.34 150.6 19.4467 150.347 19.66C150.107 19.8733 149.94 20.1867 149.847 20.6C149.753 21 149.693 21.48 149.667 22.04Z" fill="white"/>
</svg>
