<svg width="63" height="63" viewBox="0 0 63 63" fill="none" xmlns="http://www.w3.org/2000/svg">
<g clip-path="url(#clip0_19_75)">
<path fill-rule="evenodd" clip-rule="evenodd" d="M33.262 34.0574L16.2816 47.2362L43.3125 35.6698L44.8796 35.0044L44.8777 34.9985L47.4075 33.9157L47.5355 27.4897L51.1875 28.4996L48.4037 22.3059L40.887 28.1393L35.534 18.9374L11.8125 17.7188L29.8915 22.5638L30.3503 24.129L14.5451 23.3159L28.7674 27.1254L31.2224 35.6403L33.262 34.0574ZM31.5 63C14.1022 63 0 48.8978 0 31.5C0 14.1022 14.1022 0 31.5 0C48.8978 0 63 14.1022 63 31.5C63 48.8978 48.8978 63 31.5 63Z" fill="#90A6A3" stroke="#90A6A3"/>
<path d="M33.262 34.0574L31.2224 35.6403L28.7674 27.1254L14.5451 23.3159L30.3502 24.129L33.262 34.0574Z" fill="#01317E" fill-opacity="0.7" stroke="#90A6A3"/>
<path d="M33.262 34.0574L34.7937 39.2785L43.3125 35.6698L16.2816 47.2362L33.262 34.0574ZM40.887 28.1393L48.4037 22.3059L51.1875 28.4996L47.5355 27.4897L47.4075 33.9157L44.8776 34.9985L40.887 28.1393Z" fill="#01317E" fill-opacity="0.3" stroke="#90A6A3"/>
</g>
<defs>
<clipPath id="clip0_19_75">
<rect width="63" height="63" fill="white"/>
</clipPath>
</defs>
</svg>
